<svg xmlns="http://www.w3.org/2000/svg" version="1.1" xmlns:xlink="http://www.w3.org/1999/xlink" xmlns:svgjs="http://svgjs.dev/svgjs" width="1500" height="1500" viewBox="0 0 1500 1500"><rect width="1500" height="1500" fill="#010536"></rect><g transform="matrix(0.6666666666666666,0,0,0.6666666666666666,249.39393939393938,516.5617389990155)"><svg viewBox="0 0 396 185" data-background-color="#010536" preserveAspectRatio="xMidYMid meet" height="700" width="1500" xmlns="http://www.w3.org/2000/svg" xmlns:xlink="http://www.w3.org/1999/xlink"><g id="tight-bounds" transform="matrix(1,0,0,1,0.2400000000000091,0.04159632539034419)"><svg viewBox="0 0 395.52 184.9168073492193" height="184.9168073492193" width="395.52"><g><svg viewBox="0 0 395.52 184.9168073492193" height="184.9168073492193" width="395.52"><g transform="matrix(1,0,0,1,0,95.35319607901775)"><svg viewBox="0 0 395.52 89.56361127020156" height="89.56361127020156" width="395.52"><g id="textblocktransform"><svg viewBox="0 0 395.52 89.56361127020156" height="89.56361127020156" width="395.52" id="textblock"><g><svg viewBox="0 0 395.52 89.56361127020156" height="89.56361127020156" width="395.52"><g transform="matrix(1,0,0,1,0,0)"><svg width="395.52" viewBox="0.6015399999999955 -21.72867 208.22651148477746 47.151889999999995" height="89.56361127020156" data-palette-color="#fbfbf8"><path d="M20.287-18.519v0c1.761 0.461 3.504 1.132 5.231 2.011 1.72 0.878 3.149 1.828 4.288 2.85v0c-0.727 1.484-1.373 2.779-1.939 3.886-0.566 1.106-1.141 2.251-1.727 3.434v0l-3.076-0.806 0.893-5.379c-0.284-0.757-0.853-1.426-1.707-2.008-0.858-0.59-1.8-1.02-2.825-1.289v0c-1.251-0.328-2.469-0.268-3.655 0.18-1.177 0.443-1.943 1.338-2.296 2.685v0c-0.277 1.058-0.117 2.051 0.48 2.98 0.598 0.928 1.434 1.851 2.511 2.766 1.083 0.918 2.23 1.88 3.441 2.887 1.213 1 2.319 2.103 3.319 3.309 1.007 1.208 1.731 2.573 2.173 4.095 0.442 1.522 0.407 3.26-0.105 5.214v0c-0.556 2.122-1.601 3.691-3.136 4.708-1.536 1.024-3.322 1.593-5.358 1.708-2.044 0.119-4.123-0.098-6.238-0.653v0c-1.954-0.512-3.816-1.258-5.585-2.238-1.763-0.979-3.221-2.081-4.374-3.307v0c0.727-1.353 1.361-2.565 1.903-3.637 0.538-1.079 1.126-2.376 1.764-3.89v0l3.125 0.819-0.963 6.436c0.6 0.709 1.288 1.316 2.065 1.823 0.775 0.513 1.627 0.892 2.556 1.135v0c1.509 0.395 2.933 0.365 4.272-0.09 1.333-0.457 2.226-1.55 2.679-3.278v0c0.353-1.348 0.262-2.54-0.273-3.576-0.537-1.03-1.322-1.99-2.356-2.881-1.036-0.885-2.147-1.775-3.332-2.672-1.193-0.892-2.286-1.864-3.278-2.916-0.994-1.046-1.717-2.245-2.169-3.597-0.452-1.352-0.438-2.944 0.042-4.776v0c0.52-1.986 1.475-3.5 2.865-4.542 1.389-1.042 3.028-1.667 4.916-1.875 1.888-0.208 3.844-0.047 5.869 0.484zM41.308-7.701v0c-0.279 1.128-0.576 2.446-0.893 3.954-0.317 1.514-0.633 3.076-0.948 4.685-0.321 1.608-0.609 3.148-0.864 4.62-0.262 1.47-0.483 2.745-0.665 3.823-0.188 1.077-0.305 1.832-0.352 2.264v0c-0.16 1.218-0.106 2.106 0.162 2.665 0.263 0.551 0.788 0.9 1.575 1.048v0c0.55 0.103 1.155 0.114 1.814 0.034 0.658-0.074 1.55-0.327 2.676-0.761v0l0.607 2.138c-0.94 0.529-1.94 1.051-2.999 1.565-1.058 0.507-2.173 0.882-3.344 1.125-1.177 0.234-2.433 0.226-3.77-0.024v0c-0.747-0.14-1.452-0.434-2.113-0.884-0.657-0.442-1.136-1.088-1.438-1.938-0.296-0.849-0.321-1.925-0.078-3.229v0c-0.006 0.033 0.058-0.257 0.193-0.869 0.13-0.62 0.3-1.439 0.511-2.458 0.206-1.026 0.431-2.107 0.678-3.241 0.246-1.134 0.474-2.207 0.684-3.219 0.202-1.007 0.372-1.826 0.51-2.458 0.132-0.633 0.192-0.917 0.18-0.852v0c0.035-0.367-0.111-0.713-0.436-1.038-0.324-0.332-0.714-0.642-1.169-0.93-0.448-0.287-0.853-0.55-1.216-0.787-0.363-0.237-0.542-0.457-0.538-0.661v0c0.81 0.023 1.502 0.02 2.077-0.008 0.582-0.027 1.212-0.061 1.891-0.104v0c0.897-0.809 1.709-1.576 2.435-2.301 0.726-0.726 1.569-1.589 2.53-2.589v0c0.295 0.055 0.672 0.126 1.13 0.211 0.452 0.085 0.842 0.158 1.17 0.219zM30.075-3.129l16.788 3.091-0.669 3.578-16.595-4.123zM59.456 1.003v0c2.432 0.322 4.394 1.1 5.885 2.333 1.491 1.233 2.531 2.726 3.119 4.479 0.588 1.752 0.756 3.58 0.504 5.484v0c-0.257 1.943-0.908 3.706-1.952 5.289-1.05 1.582-2.463 2.777-4.237 3.585-1.78 0.8-3.903 1.036-6.368 0.709v0c-2.465-0.327-4.468-1.12-6.01-2.379-1.541-1.26-2.625-2.799-3.252-4.617-0.632-1.826-0.82-3.71-0.562-5.653v0c0.252-1.903 0.906-3.612 1.96-5.127 1.056-1.521 2.496-2.672 4.321-3.453 1.831-0.773 4.028-0.99 6.592-0.65zM53.629 10.117v0c-0.218 1.646-0.237 3.234-0.056 4.764 0.181 1.524 0.591 2.799 1.228 3.824 0.632 1.018 1.473 1.597 2.524 1.737v0c1.249 0.165 2.271-0.392 3.066-1.672 0.789-1.288 1.319-2.949 1.588-4.984v0c0.218-1.646 0.233-3.227 0.044-4.746-0.183-1.51-0.583-2.784-1.199-3.82-0.616-1.037-1.466-1.627-2.549-1.771v0c-1.249-0.165-2.268 0.396-3.058 1.684-0.788 1.281-1.318 2.942-1.588 4.984zM89.625 19.472l1.174 2.524c-1.193 0.949-2.582 1.734-4.167 2.356-1.586 0.629-3.373 0.876-5.362 0.743v0c-2.381-0.16-4.338-0.822-5.87-1.988-1.538-1.172-2.648-2.61-3.329-4.313-0.687-1.71-0.969-3.476-0.847-5.298v0c0.124-1.849 0.659-3.591 1.604-5.225 0.938-1.634 2.278-2.934 4.02-3.899 1.748-0.958 3.913-1.351 6.493-1.178v0c1.39 0.093 2.743 0.341 4.06 0.744 1.323 0.403 2.57 1.028 3.742 1.875v0c-0.581 1.685-1.008 3.076-1.282 4.173-0.274 1.097-0.541 2.135-0.8 3.114v0l-2.485-0.167-0.445-4.57c-0.778-0.747-1.683-1.356-2.713-1.826-1.037-0.471-2.087-0.708-3.15-0.713v0c-0.748 0.785-1.349 1.727-1.803 2.826-0.461 1.098-0.732 2.243-0.812 3.433v0c-0.12 1.789 0.092 3.35 0.638 4.683 0.539 1.332 1.306 2.39 2.303 3.172 0.997 0.782 2.107 1.214 3.33 1.296v0c0.825 0.055 1.721-0.058 2.689-0.341 0.968-0.289 1.972-0.763 3.012-1.421zM103.122-11.681v0c0.003 0.833 0.007 2.16 0.013 3.98 0.006 1.827 0.006 3.9 0 6.22-0.012 2.327-0.021 4.69-0.027 7.09-0.012 2.407-0.015 4.623-0.008 6.65v0l0.283 10.239 3.383 1.039-0.734 1.843c-1.227-0.063-2.33-0.099-3.31-0.109-0.98-0.017-2.05-0.023-3.21-0.02v0c-1.327 0.004-2.53 0.018-3.61 0.042-1.073 0.017-2.156 0.06-3.25 0.13v0l-0.856-1.837 4.277-1.064c0.188-3.747 0.275-7.644 0.262-11.691v0c-0.012-3.713-0.057-7.17-0.134-10.369-0.077-3.2-0.22-6.043-0.427-8.529v0l-3.982-0.637-0.457-2.039c0.567-0.035 1.346-0.088 2.34-0.157 0.993-0.07 2.07-0.147 3.229-0.231 1.16-0.09 2.289-0.177 3.389-0.261 1.093-0.09 2.036-0.187 2.829-0.289zM103.607 14.488v0c0.857-0.863 1.635-1.619 2.333-2.268 0.691-0.649 1.369-1.354 2.033-2.117 0.658-0.769 1.368-1.701 2.131-2.797v0l-4.134-1.026 0.594-1.852c1.027 0.03 2.03 0.06 3.011 0.09 0.973 0.03 2.057 0.043 3.25 0.04v0c2.16-0.007 4.103-0.063 5.829-0.169v0l0.696 1.847-4.126 1.004c-1.256 1.097-2.29 2.014-3.102 2.75-0.811 0.729-1.555 1.435-2.233 2.117-0.678 0.682-1.479 1.471-2.402 2.368v0l1.731-2.636c1.032 1.683 1.89 3.091 2.574 4.222 0.684 1.124 1.377 2.166 2.08 3.123 0.696 0.958 1.547 2.048 2.551 3.272v0l3.833 1.038-0.494 1.841c-0.927-0.064-1.797-0.094-2.61-0.091-0.813 0.003-1.7 0.006-2.66 0.008v0c-0.933 0.003-1.807 0.006-2.62 0.009-0.807 0.003-1.61 0.039-2.41 0.108v0c-0.966-1.724-1.891-3.461-2.777-5.211-0.886-1.757-1.912-3.647-3.078-5.67zM130.651-12.679v0c0.29 3.341 0.563 6.482 0.819 9.424 0.256 2.942 0.474 5.536 0.657 7.782 0.175 2.247 0.302 4.016 0.381 5.307v0l1.152 11.534 3.757 0.727-0.528 1.893c-1.095 0.028-2.181 0.082-3.258 0.163-1.078 0.074-2.277 0.168-3.599 0.283v0c-1.288 0.112-2.492 0.233-3.612 0.364-1.12 0.131-2.156 0.254-3.109 0.37v0l-1.007-1.759 4.223-1.421c-0.087-2.154-0.219-4.521-0.396-7.103-0.171-2.582-0.37-5.177-0.597-7.787v0c-0.256-2.942-0.537-5.681-0.844-8.218-0.301-2.537-0.654-4.985-1.06-7.346v0l-3.922-0.311-0.724-1.985c1.651-0.177 3.475-0.436 5.473-0.777 2.005-0.342 4.069-0.722 6.194-1.14zM140.316 1.969v0c2.052-0.178 3.741 0.391 5.067 1.708 1.332 1.316 2.162 3.091 2.49 5.324v0c0.118 0.592 0.216 1.524 0.293 2.795 0.078 1.278 0.171 2.659 0.28 4.142 0.116 1.489 0.229 2.861 0.337 4.116v0l3.757 0.727-0.587 1.898c-1.789 0.055-3.942 0.192-6.459 0.411v0c-1.255 0.109-2.393 0.225-3.413 0.347-1.02 0.122-1.957 0.237-2.811 0.344v0l-0.856-1.772 3.525-1.36c-0.031-1.128-0.064-2.082-0.098-2.863-0.034-0.78-0.078-1.556-0.132-2.327-0.048-0.779-0.134-1.698-0.26-2.758v0c-0.234-2.308-0.777-3.857-1.628-4.646-0.852-0.796-2.055-1.126-3.609-0.992v0c-1.371 1.089-2.288 2.32-2.751 3.692-0.463 1.372-0.623 2.684-0.481 3.937v0l-1.973-2.027c0.069-1.906 0.51-3.644 1.324-5.214 0.814-1.563 1.909-2.829 3.283-3.799 1.381-0.97 2.949-1.531 4.702-1.683zM165.201 21.407v0c-2.057 0.35-3.787-0.08-5.189-1.289-1.396-1.21-2.404-3.142-3.023-5.795v0c-0.26-1.132-0.534-2.543-0.821-4.232-0.286-1.683-0.629-3.802-1.029-6.358v0l-3.573 0.049-0.933-1.91c1.893-0.322 3.752-0.705 5.576-1.151 1.832-0.44 3.527-0.91 5.086-1.411v0c0.19 1.516 0.352 2.909 0.486 4.177 0.136 1.275 0.313 2.557 0.532 3.845 0.22 1.295 0.52 2.782 0.9 4.463v0c0.421 1.883 1.087 3.115 1.998 3.697 0.905 0.59 1.735 0.821 2.491 0.693v0c0.754-0.297 1.4-0.955 1.937-1.973 0.531-1.017 0.9-2.205 1.108-3.566 0.201-1.366 0.193-2.687-0.024-3.962v0l1.99 3.953c0.075 1.637-0.178 3.229-0.76 4.775-0.576 1.545-1.434 2.861-2.576 3.947-1.147 1.088-2.539 1.77-4.176 2.048zM173.252 19.177v0c-0.199-0.974-0.433-2.009-0.701-3.106-0.275-1.103-0.559-2.417-0.852-3.943v0l-2.139-10.794-3.629 0.008-0.924-1.913c1.926-0.327 3.778-0.71 5.557-1.147 1.773-0.43 3.458-0.899 5.055-1.406v0c0 0 0.057 0.376 0.172 1.127 0.109 0.759 0.251 1.695 0.426 2.808 0.169 1.114 0.33 2.223 0.484 3.326 0.153 1.097 0.286 2.024 0.402 2.782 0.108 0.753 0.161 1.129 0.161 1.129v0c0.222 1.105 0.46 2.15 0.715 3.134 0.249 0.986 0.588 2.348 1.019 4.088v0l3.853 0.41-0.618 1.971c-0.866 0.079-1.666 0.182-2.403 0.307-0.736 0.125-1.676 0.285-2.819 0.479v0c-0.486 0.083-1.121 0.207-1.904 0.374-0.777 0.166-1.395 0.288-1.855 0.366zM187.229-21.729v0c0.196 0.913 0.415 1.845 0.655 2.795 0.239 0.944 0.476 1.884 0.713 2.821v0c0.421 1.668 0.809 3.175 1.164 4.523 0.361 1.346 0.717 2.686 1.067 4.021 0.356 1.327 0.745 2.827 1.169 4.501v0c0.17 0.672 0.412 1.629 0.725 2.87 0.312 1.235 0.643 2.543 0.993 3.926 0.35 1.383 0.681 2.668 0.994 3.854 0.32 1.184 0.553 2.067 0.701 2.649v0l-0.834 1.191c-0.244 0.502-0.565 1.085-0.961 1.748-0.396 0.664-0.799 1.34-1.209 2.029v0l-2.996 0.757c-0.146-0.85-0.374-1.955-0.683-3.314-0.309-1.359-0.651-2.847-1.025-4.465-0.374-1.618-0.759-3.25-1.155-4.896-0.4-1.639-0.774-3.184-1.121-4.637-0.353-1.451-0.659-2.69-0.919-3.718v0c-0.48-1.9-0.992-3.72-1.535-5.46-0.545-1.746-1.203-3.684-1.974-5.814v0l-4.018 0.345-0.961-1.964c0.535-0.17 1.273-0.391 2.215-0.663 0.942-0.272 1.965-0.59 3.07-0.951 1.103-0.368 2.183-0.737 3.238-1.107 1.055-0.37 1.951-0.716 2.687-1.041zM197.707-8.513v0c1.765-0.446 3.366-0.328 4.803 0.354 1.436 0.675 2.665 1.716 3.687 3.121 1.021 1.399 1.751 2.968 2.19 4.707v0c0.462 1.829 0.561 3.675 0.296 5.536-0.264 1.868-0.951 3.514-2.063 4.936-1.104 1.427-2.703 2.406-4.797 2.935v0c-1.765 0.446-3.442 0.34-5.031-0.316-1.585-0.665-3.056-1.645-4.415-2.938v0l0.748-2.345c0.77 0.899 1.693 1.638 2.769 2.219 1.07 0.589 2.346 0.696 3.825 0.323v0c0.866-0.219 1.523-0.736 1.97-1.55 0.441-0.813 0.688-1.793 0.742-2.942 0.055-1.142-0.063-2.291-0.355-3.448v0c-0.292-1.157-0.741-2.25-1.345-3.28-0.603-1.024-1.322-1.842-2.158-2.457-0.841-0.606-1.759-0.852-2.755-0.737v0c-0.955 0.413-1.667 1.388-2.139 2.923-0.463 1.54-0.398 3.484 0.195 5.83v0l-2.457-3.845c0-1.334 0.212-2.618 0.635-3.853 0.424-1.235 1.1-2.313 2.029-3.236 0.937-0.918 2.146-1.563 3.626-1.937z" opacity="1" transform="matrix(1,0,0,1,0,0)" fill="#fbfbf8" class="wordmark-text-0" data-fill-palette-color="primary" id="text-0"></path></svg></g></svg></g></svg></g></svg></g><g transform="matrix(1,0,0,1,152.9781943648992,0)"><svg viewBox="0 0 89.56361127020156 89.56361127020156" height="89.56361127020156" width="89.56361127020156"><g><svg xmlns="http://www.w3.org/2000/svg" xmlns:xlink="http://www.w3.org/1999/xlink" version="1.1" x="0" y="0" viewBox="1 1 62 62" style="enable-background:new 0 0 64 64;" xml:space="preserve" height="89.56361127020156" width="89.56361127020156" class="icon-icon-0" data-fill-palette-color="accent" id="icon-0"><g fill="#ffff00" data-fill-palette-color="accent"><polygon points="15,23 7,23 7,14 10,14 10,12 5,12 5,25 17,25 17,19 15,19  " fill="#ffff00" data-fill-palette-color="accent"></polygon><polygon points="11,17.586 9.707,16.293 8.293,17.707 11,20.414 18.707,12.707 17.293,11.293  " fill="#ffff00" data-fill-palette-color="accent"></polygon><path d="M42 49C39.243 49 37 51.243 37 54S39.243 59 42 59 47 56.757 47 54 44.757 49 42 49M42 57C40.346 57 39 55.654 39 54S40.346 51 42 51 45 52.346 45 54 43.654 57 42 57" fill="#ffff00" data-fill-palette-color="accent"></path><path d="M60.164 7.013L49.239 4.828 44.717 24.924 23 20.58V1H7.586L1 7.586V29H12.02L9.182 42.057A3.27 3.27 0 0 0 6.599 44.48L6.092 46.508A3.095 3.095 0 0 0 8.531 50.301L33.043 54.84C33.468 59.41 37.321 63 42 63 46.962 63 51 58.963 51 54A8.9 8.9 0 0 0 50.033 49.965L55.054 27.871 51.851 21.515 53.802 12.98 58.558 13.931C58.786 13.977 59.019 14 59.25 14H59.472A3.53 3.53 0 0 0 63 10.472 3.54 3.54 0 0 0 60.164 7.013M27.6 23.54L30.633 24.147 29.292 28.839 26.259 28.232zM32.6 24.54L35.633 25.147 34.292 29.839 31.259 29.232zM7 4.414V7H4.414zM3 9H9V3H21V27H3zM23 29V22.62L25.633 23.147 23.741 29.769 35.708 32.163 37.6 25.54 44.278 26.876 40.157 45.192A9 9 0 0 0 36.118 47.204L11.193 42.219 14.067 29zM8 47.258C8 47.168 8.011 47.079 8.033 46.992L8.54 44.965A1.294 1.294 0 0 1 10.025 44.025L34.568 48.934A8.9 8.9 0 0 0 33.088 52.815L8.895 48.335A1.096 1.096 0 0 1 8 47.258M42 61C38.14 61 35 57.859 35 54S38.14 47 42 47 49 50.141 49 54 45.86 61 42 61M46.24 46.065L47.551 40.33 50.059 40.831 48.482 47.771A9.1 9.1 0 0 0 46.24 46.065M49.649 31.149L52.145 31.648 50.501 38.88 47.996 38.379zM52.945 28.129L52.588 29.698 50.094 29.199 51.152 24.572zM44.357 45.324A9 9 0 0 0 42.247 45.013L49.641 12.148 51.839 12.588zM59.472 12H59.25C59.149 12 59.049 11.99 58.95 11.97L50.08 10.196 50.76 7.172 59.77 8.974C60.483 9.117 61 9.747 61 10.472A1.53 1.53 0 0 1 59.472 12" fill="#ffff00" data-fill-palette-color="accent"></path></g></svg></g></svg></g><g></g></svg></g><defs></defs></svg><rect width="395.52" height="184.9168073492193" fill="none" stroke="none" visibility="hidden"></rect></g></svg></g></svg>